<svg id="Layer_1" data-name="Layer 1" xmlns="http://www.w3.org/2000/svg" viewBox="0 0 3061.42 3095.43"><path d="M1825.79,2004.33c14.74-7.26,29.78-10.34,44.7-12.78,12.87-2.11,26.23-2.23,39.31-1.74a420.93,420.93,0,0,1,47.14,4.5c10.85,1.66,21.52,5,32,8.34a346.55,346.55,0,0,1,35.18,13c12.7,5.67,26.11,10.18,37.06,19.28a5.49,5.49,0,0,0,2.34,1.29c11.08,1.78,19.08,9.2,28,15,6.94,4.49,14.18,8.49,21.66,12.93,1.43-1.79,3.14-3,3.47-4.45,4.62-20.81,12.78-40.43,21.51-59.65,6.13-13.47,14.28-26.14,22.52-38.5,12-17.91,26.9-33.31,43.32-47.19a148,148,0,0,1,38.65-23.66c11.17-4.65,23.25-7.57,35.21-9.75a71.59,71.59,0,0,1,32.52,1.38c4.45,4.31,8.11,8.81,9.12,15a15.2,15.2,0,0,0,2.18,4.9c6,10.21,8.26,21.43,9.48,33,.58,5.61,2.49,11.09,3.14,16.7,1.32,11.54,2.95,23.13,3,34.72.07,9.78-1.72,19.59-3,29.36-1.51,12.14-3.27,24.24-5,36.36a40,40,0,0,1-1.18,6.15c-3.34,10.81-6.28,21.77-10.29,32.33-5.68,15-12.17,29.65-18.33,44.45-.11.27-.35.49-.46.77-8.07,19.55-16.26,39-24.14,58.68-3.44,8.58-6.05,17.34-5.81,26.9.1,3.94-2.36,7.9-3.46,11.91-.78,2.82-2.33,6.07-1.59,8.55,2.09,7.05,5.12,13.84,8,20.66.36.87,1.8,1.28,3.68,2.52,1.14-3.28,2.24-5.93,3-8.67,3.57-12.94,6.91-25.94,10.66-38.83,1.15-3.94,3.49-7.52,5.07-11.35,6.26-15.1,11.63-30.64,18.89-45.25q8.52-17.14,15.49-34.87c9.81-25,19.31-50.23,22.84-77,2.87-21.8,4.95-43.69,3.91-65.91-.76-16.17-3.36-32-5.27-47.94-.32-2.61-1.57-5.09-2.3-7.66-1.47-5.16-3.23-10.27-4.24-15.53-1.49-7.74.22-11.76,7-18.46,9.63,1,18.86,3.11,26.72,9.92,4.22,3.66,9.38,6.22,14,9.4,14.11,9.66,25.44,22.22,36.43,35.13,2.51,2.95,5.22,5.73,7.91,8.66,4-.75,4.36-4.51,5.53-7.3q17.52-41.68,32-84.51a1024.42,1024.42,0,0,0,32.36-121.83,946.34,946.34,0,0,0,14.81-103.64,1035.25,1035.25,0,0,0,3.24-140.55c-1.49-33.4-4.76-66.67-9.43-99.83a1002.86,1002.86,0,0,0-33.76-151.78,1024,1024,0,0,0-48.11-126.2,985.39,985.39,0,0,0-73.87-133.78,999.71,999.71,0,0,0-139.1-167.88,1034.75,1034.75,0,0,0-94.88-81.69c-20.4-15.53-42-29.45-63.37-43.72-28.54-19.1-58.63-35.58-89.35-50.86-28.58-14.21-57.86-26.86-87.68-38.38a1011.78,1011.78,0,0,0-109-35.06A787.84,787.84,0,0,0,1679,550.69c-26.3-3.45-52.77-5.82-79.24-7.77-22.31-1.64-44.74-3-67.09-2.63-27.73.45-55.53.57-83.17,3.91-21.92,2.65-43.94,4.49-65.81,7.46-27.51,3.75-54.66,9.57-81.64,16.13a980.91,980.91,0,0,0-300.17,129.54,1008.7,1008.7,0,0,0-147.2,116.4,1053.22,1053.22,0,0,0-78.06,83.63,974.26,974.26,0,0,0-89.79,126.06A952.74,952.74,0,0,0,632,1129a1077.34,1077.34,0,0,0-47.54,128.39,887.75,887.75,0,0,0-25.81,110.67c-4,24.42-7.93,48.89-10.4,73.49-2.44,24.34-3.61,48.85-4.22,73.31-.64,26-.78,52,.39,77.91,1.16,25.6,4.38,51.1,6.45,76.67,2,25.33,6.68,50.28,11.66,75.1,5,25.14,11.71,50,18.11,74.82,10.21,39.66,24.13,78.14,39.71,115.93a950.77,950.77,0,0,0,49,101.43c14.57,26.07,30,51.59,46.7,76.36,23.88,35.43,49.71,69.4,78.33,101.12q26.65,29.55,55.21,57.37c19,18.5,38.54,36.62,59,53.54,21.13,17.48,43.23,33.86,65.59,49.75,34.84,24.75,71.67,46.3,109.58,66.06a993.78,993.78,0,0,0,114.47,50.82c39.19,14.52,79.17,26.69,120.12,35.13q44.22,9.12,89,15.7c21.52,3.17,43.34,4.4,65,6.31,34.6,3,69.31,2.33,103.93,1.22,24.72-.79,49.37-4.05,74-6.28,26.79-2.44,53.26-7.18,79.57-12.5a944.72,944.72,0,0,0,123.3-33.57c3.06-1.07,6-2.53,9.91-4.21-2.56-1.92-4.27-3.44-6.2-4.59-8.1-4.81-14.14-11.51-19.4-19.27-4.8-7.09-10.59-13.49-15.75-20.35-6.57-8.72-12.17-18.31-19.6-26.2-7.82-8.3-11.78-18.45-17.4-27.86-6.39-10.7-13.22-21.15-18.7-32.35-9.54-19.5-19.52-38.88-25.82-59.71-5.59-18.52-11.12-37.17-14.77-56.12-2.8-14.55-5-29.38-4.78-44.44.3-18.82-.42-37.66,2.56-56.34a139.52,139.52,0,0,1,3.2-14.87c2.78-10.06,5.13-20.31,8.9-30A195.58,195.58,0,0,1,1770.7,2043c8.86-10.12,21.23-12.34,32-6.13,6.65,3.82,14,6.5,20.46,10.56,8,5,15.49,11,23.19,16.54,20.65,14.91,37.55,33.66,54.06,52.82,14.62,17,26.64,35.85,37.3,55.35,10.54,19.28,20.44,39,28.29,59.72,4,10.53,7.35,21.45,12.21,31.53,6,12.46,8.9,25.75,13.41,38.59,3.53,10.08,8.1,19.78,12,29.74,3,7.75,5.45,15.73,8.55,23.45,2,4.95,4.68,9.63,7.1,14.4,6,11.89,12.07,23.8,18.22,35.64,4.25,8.17,8.59,16.3,13.09,24.33,1.87,3.34,4.43,6.3,6.41,9.6,3.33,5.57,8.27,10,10.68,16.31a12.52,12.52,0,0,0,10.71,8c.86,8,6,13.13,10.3,18.36,7.33,8.95,15.35,17.37,23.47,25.62,11.05,11.24,21.75,23,34,32.87,10.54,8.51,19.79,18.81,32.11,25.14,2.23,1.15,3.62,3.91,6.38,4.68q4.74,3,9.47,6c1.76,1.12,3.45,2.34,5.25,3.39,8.69,5.1,8.7,5.08,10.4,15.18-7.89,14.84-22.95,14.56-35.87,18-14.07,3.77-28.37,6.92-43.23,6.05-5.3-.31-10.72,1.56-16,1.26-12.2-.68-24.44-1.54-36.51-3.36a263.64,263.64,0,0,1-32.18-7.21c-10.83-3.07-21.43-7-32.05-10.79-15.33-5.49-29.54-13.37-43.64-21.38-13.49-7.66-26.4-16.21-37.44-27.29-1.87-1.87-4.09-3.39-6.57-5.43-5.11,1.89-10.14,3.63-15.07,5.61a996.56,996.56,0,0,1-123.26,40.23,926.64,926.64,0,0,1-110.62,21.82c-20.71,2.7-41.59,4-62.35,6.41-37.2,4.31-74.52,3.32-111.84,3.45-22.74.09-45.28-2.57-67.88-4.25a862.49,862.49,0,0,1-109-15.49c-29.24-6-58.25-13-86.91-21.48-34.94-10.34-69.17-22.58-102.93-36.25a1008.51,1008.51,0,0,1-109.73-52.68,1055,1055,0,0,1-107.86-68.72c-33.42-24.18-64.93-50.63-95.5-78.19-16.81-15.14-32.56-31.49-48.35-47.72A1003.21,1003.21,0,0,1,692,2199.76c-27.08-36.08-52.2-73.5-73.86-113.12-12.32-22.52-24.72-45-35.87-68.15a1071.62,1071.62,0,0,1-54.79-138,1041.41,1041.41,0,0,1-34.31-137.1c-4.12-23.18-6.85-46.61-10-70-7.81-57.92-8.22-116.18-6.51-174.42.75-25.61,4.05-51.16,6.31-76.72a673.09,673.09,0,0,1,11.18-75.17c5-24.54,10.26-49,16.18-73.37A814.35,814.35,0,0,1,537.65,1184c10.23-27.7,21.46-55.07,33.24-82.15,21-48.23,46.07-94.29,74.35-138.67A1081,1081,0,0,1,822,751.22,1006.73,1006.73,0,0,1,940,656.6a1049.3,1049.3,0,0,1,114.39-68.33A1038.56,1038.56,0,0,1,1175,535.67c32.85-11.84,66.14-22.38,100-31.07a968.84,968.84,0,0,1,129.35-24c28.14-3.27,56.51-4.87,84.83-6.21,23.25-1.11,46.58-1.2,69.86-.88,17,.22,34,1.8,51,2.84,8,.49,16.14.69,24.11,1.75,27.22,3.61,54.43,7.29,81.57,11.41,28.35,4.31,56.22,11,83.85,18.58a1098.89,1098.89,0,0,1,151,53.32,1034.37,1034.37,0,0,1,162.71,89.84,1060.24,1060.24,0,0,1,118.19,92.85,1027.81,1027.81,0,0,1,78.92,79.37,1102,1102,0,0,1,89.22,114.19,1087.08,1087.08,0,0,1,169.2,416.48c6.4,36.16,10.71,72.6,13.61,109.27a1085.57,1085.57,0,0,1,2.6,122.71c-1.11,32.8-3.81,65.52-7.85,98.15q-5,40.44-13,80.32c-13.67,68.69-34.36,135.29-60.93,200.05-7,17.12-14.43,34.11-22.57,50.72-3.21,6.55-2.88,11.73.44,17.59a137.51,137.51,0,0,1,15.3,42.85c1.19,6.35.6,13,.84,19.55.08,2.34-.44,5,.46,7,4.19,9.26,4.12,19.27,5,29,1.49,16.93,1.84,34,2.49,51,.26,6.86.36,13.76,0,20.62-.48,9.21-1.65,18.39-2.22,27.6-1,16.49-6.38,32.12-9.42,48.21-3.19,16.95-10.09,32.85-17.83,48.32-2.25,4.49-3.44,9.5-5.67,14-4.6,9.28-8.72,19-14.61,27.39-9.13,13.08-18.88,25.76-30.16,37.25a230.09,230.09,0,0,1-25.8,23.17c-15.35,11.52-31.74,21-50.47,26-3.12.83-6.09,2.32-9.24,3a109.52,109.52,0,0,1-15.83,2.51c-17.72,1-18.81,1.22-23.74,21.1a173.4,173.4,0,0,1-5.6,18.88c-5.7,15.38-11.81,30.68-21.26,44.19a89.3,89.3,0,0,1-24.75,24.14c-2.55,1.65-7,1.44-10.26.69a73.47,73.47,0,0,1-30.88-15.34c-8.9-7.35-19.19-13-28.71-19.64-6.08-4.24-12.29-8.46-17.72-13.46-11.38-10.48-22.52-21.25-33.28-32.35-6-6.16-10.65-13.55-16.53-19.81-5.08-5.42-10.71-10.28-14.33-16.94a86.4,86.4,0,0,0-5.28-8.14c-2.9-4.14-6-8.14-8.87-12.31-2.17-3.18-4.14-6.51-6.1-9.83-.61-1-.58-2.57-1.38-3.26-8.84-7.66-9.81-20.32-18.08-28.35-1-1-1.43-2.6-2-4-4.09-9.57-7.77-19.34-12.31-28.69a250.83,250.83,0,0,1-13.86-36.65c-1.36-4.49-4.13-8.53-5.73-13-7.22-19.89-13.86-40-21.48-59.74-5.89-15.24-12.92-30.05-19.45-45.05-2-4.65-3.6-9.58-6.2-13.89-6.88-11.44-12.41-23.59-20.21-34.6-8.61-12.13-16.75-24.57-26.57-35.78-8-9.15-14.86-19.22-24-27.47-8.58-7.73-15.75-17-24.09-25a173.71,173.71,0,0,0-19.41-15.71c-10.9-7.8-22.08-15.2-33.23-22.65-7.67-5.13-9.44-13.49-4.3-21.4C1824.71,2005.56,1825.33,2004.9,1825.79,2004.33Z"/><path d="M960,1484.3c-31.62.37-61.48-2.91-90.42-12.45-27.58-9.09-52.48-23-72.79-43.93a181.75,181.75,0,0,1-36.2-54.93c-16.24-37.59-20.23-77.18-20-117.42a290.35,290.35,0,0,1,8.23-68.24c8-32.39,21.83-61.87,44.65-86.56,20.06-21.7,44.44-36.86,72.4-46.33a257.72,257.72,0,0,1,57.56-12.84c18.14-1.77,36.27-1.24,54.48-.15a248.23,248.23,0,0,1,65.64,12.69c41,14,73.39,39,95.44,76.79a212.16,212.16,0,0,1,26,72.9,358.15,358.15,0,0,1,2.38,100.72c-3.41,29.37-11.13,57.29-25,83.45-18,33.9-44.48,58.76-79.27,74.81-29.67,13.69-61,20.2-93.58,20.87C965.82,1483.76,962.25,1484.14,960,1484.3Zm75.84-222.6c0-2.39.07-4.78,0-7.17-.83-24.67-4.43-48.72-15.82-71-5.09-10-11.72-18.73-20.69-25.47-17-12.74-36.23-16-56.84-13.38-22.3,2.82-38.59,14.45-50.24,33.44-9.25,15.08-13.48,31.71-16.29,48.83-3.44,21.06-3.25,42.27-1.19,63.4,2,20,6.54,39.44,17,57,9,15.17,21.48,26.26,38.51,31.62a80.24,80.24,0,0,0,38,2.37c17.34-2.9,31.39-10.9,42.31-24.55a95.07,95.07,0,0,0,14.5-25.56C1033.57,1308.79,1035.81,1285.42,1035.79,1261.7Z"/><path d="M1924.23,1359.55h-29.08c-1.59,9.53-.57,18.75-.75,27.9-.19,9.56,0,19.13,0,28.69v27.55c-6.82,1.84-66.61,2.33-78.79.78-1.54-7.21-2.21-214.2-.72-235.11a49.2,49.2,0,0,1,5.8-.66c50.23,0,100.45-.09,150.67.09a87.91,87.91,0,0,1,49.09,14.72c42.38,28.13,41.12,95.28-8.86,119.33-2.39,1.15-4.79,2.27-8.15,3.86,1.3,2.89,2.27,5.57,3.65,8q21.87,39.06,43.85,78.07c2,3.59,3.9,7.26,5.9,11-7.06,1.78-68.72,2.37-88.78.91Zm-29.64-52.41c18.78,0,36.67.5,54.51-.16,14.16-.53,24.59-15.35,18-31.78-3.21-8-9.93-12.65-18.87-12.75-17-.19-34-.11-51-.09a8.87,8.87,0,0,0-2.64,1Z"/><path d="M1784.31,1444.62c-29.14-.27-56.51.58-84.42-.73-3.6-10.76-7.08-21.15-10.48-31.33-6.74-1.73-73.08-2.29-87.73-.74l-10.29,31.31c-7.41,1.85-70.42,2.06-81.61.34q45.32-117.35,90.55-234.47h93.19Zm-112.2-87.77c-3-9.63-5.75-18.72-8.56-27.79-2.75-8.83-5.22-17.76-8.38-26.44s-4.19-18.23-10.33-27.94l-26.15,81.48C1625.47,1357.85,1657.69,1358.26,1672.11,1356.85Z"/><path d="M2327.23,1304.77h-75.71c-.39-2.6-.82-4.86-1.05-7.15-1.91-19.4-13.59-32.76-32.73-36.06-15.83-2.73-31-1.22-43.52,10.57a40.48,40.48,0,0,0-12.22,23.41,187.14,187.14,0,0,0-.09,59.75c3.53,21.87,19.67,36.83,44.91,36.25,9.65-.22,19-1.14,27.64-6.13a35.64,35.64,0,0,0,17.65-24.65c.78-3.75,1.37-7.54,2.13-11.76h72.47a61.29,61.29,0,0,1,.35,7.59c-1.48,21.36-7.54,41-22,57.43-10.49,11.92-23.6,20-38.42,25.4-22.24,8.06-45.35,10-68.81,9.2-17.71-.62-35-3.26-51.74-9.45-30.89-11.43-51.78-32.62-61-64.27-10.16-34.72-10-69.63,2.11-103.89,9.7-27.39,28.89-46.15,55.83-57,22-8.82,45.05-11.08,68.53-10.67,18.94.33,37.43,3,55.14,10s32.53,17.41,43.49,33.09C2322.21,1263.7,2327.15,1283,2327.23,1304.77Z"/><path d="M1380.84,1368.08V1443c-6.85,2-69.89,2.27-79.08.46V1209.37a49.15,49.15,0,0,1,5.85-.67c45.7,0,91.4-.47,137.09.2,25.86.37,47.45,10.88,62.6,32.55a70.71,70.71,0,0,1,12.68,34c2,19.73.14,38.75-10.44,56.14-11.7,19.25-28.91,30.66-50.85,34.64-8.14,1.47-16.59,1.67-24.9,1.79C1416.5,1368.26,1399.2,1368.08,1380.84,1368.08Zm.56-103.82v48.13c13.29,0,26.1.37,38.86-.18a18.63,18.63,0,0,0,14.56-7.72c6.38-8.83,6.2-18.61,2.6-28.07-3.16-8.32-10.66-11.84-19.23-12.08C1406,1264,1393.79,1264.26,1381.4,1264.26Z"/><path d="M2307.84,1591.88c5.54,23,3.81,44.47.06,65.87-8.32,1.78-365.37,1.88-374.44.18-1.83-7-2-56.31,0-65.62,7.69-.5,15.64-1.47,23.59-1.46,48.39.05,96.78.36,145.18.51q97.68.32,195.36.52Z"/><path d="M788.17,1579.87c8.4-.57,16.08-1.53,23.76-1.54,28.68,0,57.35.26,86,.35q127.24.4,254.5.78c3.8,0,7.6.26,11.19.39,5.2,22.05,3.17,43.36.3,65.1-2.33,2.39-5.84,1.5-9,1.54q-26.88.29-53.77.23-151-.15-302-.38c-3.5,0-7-.23-11-.38Z"/><path d="M1199.8,1107.07c-1.39-1.73-2.66-3.39-4-5-9.93-11.92-10.82-34.72,7.71-44.72,4.62-2.49,8.59-5.56,10.89-10.26,1.36-2.79,1.9-6,2.88-9.21-11.11-4.71-22-2.47-32.41-3.64-3.62-2.42-3.88-6-4-9.64-.47-16.72-1.25-33.44-1.17-50.15,0-6.75,1.57-13.6,3.17-20.22,1.7-7.08,7-10.76,14.4-10.77,17,0,34,0,51,.17a87,87,0,0,1,13.33,1.46c5.43.93,8.09,4.09,8.71,9.71a26.73,26.73,0,0,1,.14,2.68c.23,21.51.94,43,.45,64.54-.23,10-1.17,20.64-4.67,29.9-4.56,12.06-9.86,24.36-20.87,32.73-8.77,6.66-17.39,13.53-25.89,20.53C1213.51,1110.11,1207.33,1111.23,1199.8,1107.07Z"/><path d="M1698.62,1544.52h104.45c1.22,9.81.46,19.22.54,29.7-22,.36-43.43,0-65.57.25v16c18.53.77,36.92-.15,55.75.49v28.13H1738v18.1h65.43c2.11,6.76,2.39,18.84.84,30h-105.6Z"/><path d="M1564.63,1665.65c-1.56.74-2.32,1.41-3.08,1.41-12.23.07-24.45,0-37.22,0l-6.19-17h-42.29c-2.11,5.8-4.12,11.31-6.12,16.79H1432c-1.37-3.42.73-6.28,1.76-9.16,9.1-25.24,18.33-50.44,27.51-75.66,4.49-12.33,8.94-24.67,13.56-37.42h45.82C1535.2,1584.6,1549.89,1625.07,1564.63,1665.65Zm-54.42-43c-2.22-8-3.91-14.86-6.09-21.63s-2.72-14.18-7.66-22.27c-4.19,15.73-9.23,29.18-12.06,43.9Z"/><path d="M1420.62,1595.49h-36.88c-.47-2.38-.81-4.42-1.29-6.43-2.38-10-8.89-15.67-18.68-16.39-10.86-.81-19.21,4.08-22.71,13.62a31.64,31.64,0,0,0-2.14,9.55c-.29,7.45-.35,15,0,22.4.88,16.1,13.4,27.63,33.16,20.81a16.66,16.66,0,0,0,10.7-11.29c.87-2.8,1.47-5.69,2.31-9h34.13c2,7.53,0,14.38-2.61,21-5,12.75-14.42,20.88-27.22,25.39-16.62,5.85-33.66,6-50.35,1.79-18.92-4.78-32.19-16.75-37.24-36.21-4.52-17.39-4.57-34.91.79-52.16,5.16-16.61,16.55-27.45,33-32.45,17.58-5.33,35.39-5.54,52.84.74,18.29,6.57,28.3,20,31.19,39C1420.14,1588.77,1420.27,1591.73,1420.62,1595.49Z"/><path d="M1678,1544.83v28.4c-6.34,2.28-12.91.81-19.32,1.08s-12.55.06-18.82.06H1619.6V1594c16.74.74,33.31-.1,50.27.51v27.61c-16.31,1.64-32.95-.15-50.35,1-1.5,14.45.4,29-1,43.65h-37.23c-1.8-6.64-2.28-110.78-.58-121.38C1587.09,1543.78,1662.57,1543.2,1678,1544.83Z"/></svg>