<svg id="Layer_1" data-name="Layer 1" xmlns="http://www.w3.org/2000/svg" viewBox="0 0 3061.42 3095.43"><defs><style>.cls-1{fill:#b67f0e;}</style></defs><path class="cls-1" d="M1528.56,445.63c19.85,0,39.71.53,59.53-.14,23-.78,45.24,3.87,67.6,7.45,41.14,6.59,82.28,13.43,123.12,21.68,57.23,11.56,112.51,29.92,166.52,52a1079.75,1079.75,0,0,1,191.2,101.71,1153.9,1153.9,0,0,1,141.91,112.09,1115.69,1115.69,0,0,1,182,217c65,101,112.46,209.68,139.32,326.86,9.68,42.21,16,85.18,23.66,127.85,3.12,17.48,5.63,35.06,8.28,52.61a100,100,0,0,1,1.4,14.74c.1,46.33.37,92.66-.16,139-.13,11.87-2.54,23.76-4.55,35.53-8.07,47.2-15,94.67-24.89,141.48-25.84,121.74-73.63,234.66-140,339.83-52.62,83.38-115.54,158.16-188,224.9a1107.71,1107.71,0,0,1-217.94,156.67,1064.29,1064.29,0,0,1-267.3,103.48c-48.64,11.58-97.93,19.22-147.7,24.39-59,6.13-118.06,6.28-177.08,3.58-55.7-2.55-110.9-10.65-165.49-22.35a1098.53,1098.53,0,0,1-689.73-470.85c-69.14-104.85-118.28-218.63-149.14-340.25a1046,1046,0,0,1-26.12-146.22c-5.55-51.89-8.35-103.86-6.24-156,4.06-100.38,20.65-198.63,51.17-294.52q63.38-199.07,193.92-361.89C747,765.42,832.28,687.7,930.19,624.14c95.7-62.13,198.4-109,308.88-137.62,39.86-10.33,80.87-16.26,121.37-24.12q40.69-7.9,81.45-15.52a76.23,76.23,0,0,1,13.5-1.2C1479.78,445.57,1504.17,445.63,1528.56,445.63ZM635.83,1645.77c-50.56,6.09-99.73,12-148.88,18-4.69.57-9.29,1.85-13.82,2.78,6,37.84,47.11,214.36,52.29,223.84l118.27-40.27c-7-26.62-13.58-52-20.41-78.09l38.13-9.38c11.63,37.22,22.91,73.31,34.42,110.12-26.74,10.68-52.39,20.94-78.06,31.17q-39,15.57-77.95,31c5.33,15.86,101.63,197.58,108.21,204.42,34.34-23.28,69.2-45.92,103.51-70.37l-39.81-70.09,34.92-17.85c20.57,32.2,40.77,63.8,61.73,96.6l-136,101.38,156.74,170.47,83-94.76L857,2195.22l14.41-13.46c4.43-4.14,8.87-8.26,13.72-12.78,28.92,26.44,56.8,51.95,84.32,78.21L864.74,2379.9,1060.09,2504l56.19-114.59-70-41.18,21-33.21,102.08,53.45c-22.57,52.31-44.6,103.38-67.08,155.46l220.82,69.3c8.35-42.5,16.37-83.26,24.57-125l-77.17-21.79,11.24-37.22,111.71,24.95c-1,7.27-1.86,13.32-2.74,19.36-6.51,44.95-13.09,89.89-19.48,134.86-.61,4.27-.08,8.7-.08,12.94,2.19.53,3.36,1.06,4.54,1.06q107.91.12,215.82.12a34,34,0,0,0,4.91-.56,2.29,2.29,0,0,0,1-.58c.32-.26.57-.6,2-2.19q-4-56.61-8.16-116.84h-75.63v-38.31h111.85c6.56,54.38,13.07,108.31,19.74,163.65,38.51-8.67,75.9-16.84,113.15-25.57s74.64-15.86,112.22-26c-14.07-40.92-27.6-80.27-41.28-120.1-13.78,3.77-26.41,7.57-39.23,10.61-12.59,3-24.71,8.46-38.36,9-3.12-13-7.28-24.54-8.54-37.3l109.21-34.34c10.64,26.88,20.8,53,31.29,79s19.46,52.28,31.38,77.45c23.15-9.21,196.5-101.7,203.65-108.73l-69.92-103.4-69.94,39.56c-4-7.32-7.46-13.36-10.7-19.5-2.47-4.68-4.68-9.5-7.48-15.21l96.72-61.76,101,136.44,169.17-156c-8.72-11.2-86.58-79.08-94.75-82.85-9.63,8.89-19.36,17.84-29,26.82s-19.11,17.79-29.15,27.14l-26.32-28.47,78.18-84.51c44.49,35.39,88,70,132.39,105.28l124.45-195.5-114.49-56.46-41,70-33.48-20.49,53.14-102.44c26.49,11.45,51.88,22.45,77.29,33.38,25.68,11,51.38,22,78.37,33.51l68.94-219.59c-23.68-8-114.6-24.91-125.17-23.1-6.85,24.08-13.82,48.55-21,73.87-13.65-2.82-25.44-6.78-37.32-11,8.9-37.8,15.93-74.57,25.35-111.17,56.36,7.6,111.15,16.37,166.08,23.35,3.23-17.37,10.35-219.89,7.94-230-41.5,2.62-83.27,4.7-126.09,8.65v75.19c-16.34,2-29.39,1.57-37.51-1V1451.54l162.44-19.44c-16.91-75.79-33.59-150.43-51-225.79l-120.23,41.32c6.9,26.22,13.49,51.26,20.4,77.47l-38,9.92c-11.65-37-23-73-34.65-110.07,27.18-10.83,53.29-21,79.24-31.64,25.78-10.54,52.09-19.85,77.92-31.72-11.66-22.17-22.65-43-33.58-63.84q-33.69-64.27-67.36-128.54c-2-3.82-4.51-7.37-7.16-11.65l-104.8,70.32,39.78,70.32-34.6,18.43L2253,1019.82,2388.85,918.3l-156.6-170.41-83.55,95.36,55.82,59.41c-10.35,9.21-19.47,17.34-28.86,25.71l-83.81-78,104.63-132.93L2001,593.55,1945.15,708l69.68,41c-7.36,11.89-14,22.58-20.81,33.62L1892,728.9c22.51-52.22,44.53-103.29,67.06-155.53l-220.72-69c-8.78,42.22-16.93,83.24-24.19,124.88l76.82,21.8-11.75,37.27L1668,662.94c7.09-56.33,16.82-111,23.66-167.45-39.62-1.39-77.59-1.78-115.41-4.3-52.86-3.52-103.88-5.52-115.32-2.55,3,41.3,6,82.73,9.08,125.72h76.73c.16,13.84.6,26-.27,37.95-18.22,2.16-103.53,1.5-112.92-.85-3.38-26.76-7.06-53.71-10.12-80.74-3-26.84-6-53.67-10-81.2L1188.3,540.85c14.52,40.67,27.15,80.55,42.16,119.95l77.26-19.92c3.17,13.32,6.07,25.53,9.11,38.3L1207,713c-21.91-52.31-40.93-104.94-63.12-157.27L939.26,663.64l71.17,105.44,70.26-40,18,35.09-96.58,61.58L900.73,689.87C843.43,742.8,787.4,794.54,730.62,847l94.62,82.8,59.32-55.34,26.26,28.78c-26.49,28.6-51.92,56.08-78,84.25L701.09,883.12C689.51,897,581.2,1069.23,578,1078.76c37.2,18.22,74.18,37.15,112.53,55.35l40.88-70L764.76,1085c-18.06,34.73-35.5,68.27-53.21,102.31L556,1120.1c-23,73.78-45.74,146.57-69,221.12,42.18,8.38,83.12,16.64,124.79,24.23,7.39-26.13,14.44-51,21.91-77.44l37.06,11.88c-8.46,37.75-16.57,73.91-25,111.41L478,1387.66v229.53c39.82-1.44,78.65-4.32,118.68-8v-74.69c12.49-2.5,29.57-2.34,39.14.16Z"/><path class="cls-1" d="M1764.58,597.15c3.12-13.21,6-25.47,9.12-38.66l125.56,38.88c-19.53,51.55-38.78,102.32-58.4,154.07l164.81,85.87,67.7-101.15-70.85-45.66c6-12.14,11.34-23.91,19.41-35.62l111.13,70.44-96.63,133.39,136.84,125.76L2265,904.61l-57-63.17,29.69-27.12L2324.93,909c-4,3.69-7.31,7.12-11,10.1q-53.94,43.74-108,87.35c-2.53,2-5.19,3.93-8.47,6.41l100.15,157.28,108.83-53.45c-5.1-13.81-13.11-25.35-19.18-37.79-5.94-12.19-12.57-24.06-19.25-36.74l34-22.06,61.41,116.78-150.14,67.69c18.73,59.2,37.12,117.36,56,176.91l118.75-23.54c-5.69-28.12-11.06-54.69-16.63-82.22l37.8-11.13c10.14,42.46,19.07,84.58,28.33,127.93l-159.69,26.16c-2.28,8.65,4.09,170.73,7.38,185.39l119.26,8.54c1-14.38.41-27.49.51-40.55s0-26.34,0-40.42h38.11v126.62c-54.12-4.49-107.52-11.32-162.51-15.28L2340.88,1821c8.17,5.82,91,35.52,114.53,41.12,8.43-26,16.92-52.13,25.74-79.32l39,8.72c-12.11,42.39-26,83.25-39,126.2l-153.18-58.61c-29.31,54.3-57,109.09-86.42,164.59L2342.65,2092l45.55-71.41,35.93,19.38c-23.8,37.46-47,73.91-70.88,111.53l-133.15-96.52-125.84,136.94,80,91.65c21.44-19.28,41.92-37.67,62.83-56.47l29.74,27.11-97.21,89.94-104.12-127.79-156.47,100.06c17.86,36.34,35.42,72.06,53.57,109l74.66-38.62c7.1,10.93,14,21.57,21.78,33.58-38.59,21.66-77.56,41-116.68,62.11l-67.68-150.27-176.86,55.74c7.72,39.85,15.22,78.53,23,118.8l82.75-16.21c3.48,12.2,6.92,24.26,10.85,38l-127.71,28.22c-9-54.42-17.71-107.65-26.67-162l-184.88,8.06c-2.84,40.32-5.58,79.28-8.41,119.53,4.6.45,8.11,1.07,11.62,1.09,19,.1,38,0,57.06.08,4,0,8,.43,12.76.7v36.26c-9.43,2.25-112.47,2.67-127.11.4,5.15-53.15,10.32-106.39,15.61-161-60.23-14.38-119.8-26.79-180.47-40.77l-39.91,114.9,80.84,26.31c-3.34,12.94-6.49,25.13-10,38.86l-125.24-39.15c19.66-51.69,38.83-102.11,58.46-153.74l-165-86c-22.64,33.86-44.63,66.75-67.4,100.79,22.92,16.14,46.9,29.74,70.78,46.28l-19.13,35.49-111.52-70.61,96.43-133.27c-45.09-42.27-90.59-83.5-136.81-126l-91.83,80.45,57,62-27.4,30-89.8-97.29L863.48,2084l-100.07-157-109.16,54.07L693,2055.26l-32.16,20.94c-6.45-6-55.42-97.43-62-115.81,48.82-23.29,98.91-44.28,148.78-67.81-18.67-59-37.07-117.17-55.83-176.44L573.5,1739c5.4,27.82,10.56,54.42,15.92,82-11.6,5.75-24.17,7.48-37.64,12.07-9.63-42.83-19-84.52-28.72-127.79,54-9.75,107.73-17.34,162.41-27.1-2.83-61.39-5.64-122.29-8.52-184.69l-120.4-8.8c-.42,27.57.07,53.83-.31,80.62-12.85,2.64-24.69.84-36.28,1.36-2.89-9-3.85-104-1.32-127.6l161.24,16c13.74-60.57,27.24-120,41-180.82l-114.78-39.82c-8.93,26.9-17.47,52.66-26.3,79.25-13.32-.36-25.24-5-39.19-8l39.5-126.06,153.27,58.73,86.16-164.92L719,1006c-9,10.92-15.31,23.41-23.06,34.86s-15.26,23.37-23.23,35.63l-35.93-18.79L707.6,946.07l133.49,96.42L967,905.38l-80.44-91.71-61.69,56.47-27-30.07,93.81-86.6,103.9,127.69,156.51-99.77c-17.8-36.55-35.14-72.17-53.2-109.24l-74.77,38.34c-7.27-11.11-14.21-21.72-22.07-33.75L1119,615.18c22.57,50.35,44.66,99.64,67.36,150.26l176.94-55.85c-7.82-39.88-15.47-78.93-23.32-119l-82.11,16.87-11.58-37.61c42.63-10.65,84.86-19.23,128.09-29.16,9,54.66,17.69,107.86,26.6,162.22l184.76-8.2,8.89-120.57c-27.52-.84-53.81,0-81.29-.56-1.43-12.64-.4-24.84-.66-36.81,9.4-2.58,109.94-3.26,127.81-.89-5.41,53.49-10.82,107-16.37,162l180.56,40.57c13.79-37.86,26.58-75.57,39.62-114.6ZM1532.93,2359.79c19.79-1,39.59-1.95,59.37-3.06,39.26-2.2,78-8.29,116.32-16.8A795.36,795.36,0,0,0,1930.87,2254a803.88,803.88,0,0,0,219.69-183.49q103.68-123.57,152.3-277.66c24.28-76.6,36.13-155.15,37.7-235.33.34-17.32-1.27-34.67-1.59-52-.64-34.82-5.45-69.22-11.6-103.35A775.14,775.14,0,0,0,2291,1268.35q-72.75-195.22-229.79-332a802.68,802.68,0,0,0-216.08-134.21c-97.55-41.07-199.38-61.42-304.93-63.79-45.93-1-91.67,2.69-137,9.76A789.29,789.29,0,0,0,1177,819q-156.57,76.5-268.11,210.59A808.18,808.18,0,0,0,757,1310.25c-22.45,72.72-34.09,147.19-35.91,223.17-.52,21.86,1.16,43.77,1.65,65.66.7,31.49,5.15,62.55,10.52,93.49a777.53,777.53,0,0,0,57.62,188q65.39,144.69,180.31,254.41a806.83,806.83,0,0,0,185,132.32C1274.22,2328.51,1399.94,2358.73,1532.93,2359.79Z"/><path class="cls-1" d="M1734.63,1021.86c-3,18.23-2,35.21,5.8,51.45,10.84,22.52,38.86,35.75,63.37,30.35,20.69-4.56,39.21-12.83,53.45-29.13a63.76,63.76,0,0,0,12.83-21.35c-5.29-2.9-10-5.23-14.51-8-8.26-5.1-14.3-12.3-12.64-22.34,1.73-10.47,6.62-19.52,18.23-22.88,11-3.18,20.44-1.38,28.13,7.37,2.16,2.46,4,5.21,6.45,8.43,19.93-11.72,38.7-27.83,66.11-18.38-64.61,62.73-116.19,133.22-151.31,216.3H1248.86c-7.9-14.37-16.16-29.57-24.59-44.67-22.57-40.47-46.15-80.31-73.72-117.63a355.57,355.57,0,0,0-22.45-28.07c-8-8.81-17-16.67-25.54-24.87,14.27-5.48,33.22-1,44.51,10.65,1.43,1.48,2.65,3.17,4,4.73,5.81,6.68,10.23,6.9,16.42.75,2.62-2.6,4.82-5.75,7.78-7.85,11.78-8.38,24.15-7.14,32.79,4.42,12.55,16.77,13.15,21.91-5.57,33.06-4.19,2.5-8.54,4.73-12.68,7,13.73,37.57,52.07,62,89.89,56.36,8-1.19,15.92-6.62,22.85-11.54,22.67-16.11,31.22-42.08,24-69-1.29-4.8-3-8.32-7.91-10.06A38.67,38.67,0,0,1,1311,1013c-8.42-5.39-14.89-12.26-13.92-23.1,1.09-12.06,9.39-21.4,21.08-24.74,12.13-3.47,21.27-.73,28.8,8.64,11,13.7,10.22,27-3,41.18,4.67,15.91,14.81,28.08,29,36.46,33.55,19.76,66.9,17.32,99.67-2.38,11.08-6.66,21.31-14.23,28.18-25.57,5.74-9.47,8.84-19.36,6-31.22-6.36,1.54-12.2,3.32-18.18,4.31s-12.43,2.31-18.4,1.51c-6.77-.91-14.19-2.65-19.65-6.44-12.2-8.45-13.8-21.95-12.88-35.57.88-12.9,6.74-23.14,19.24-28,6-2.34,12.69-3.33,19.16-4.34,4-.61,8.12-.11,12.91-.11,1.85-10.48-1.14-19.66-3.06-28.57a51.34,51.34,0,0,1,1.57-27.88c6.69-20.35,15.7-39.17,33.16-52.67,3.23-2.5,6.73-4.65,10.66-7.35A169.36,169.36,0,0,1,1567,856.3c6,12.58,5.07,25.69,3.77,38.94-.73,7.35-1.08,14.75-1.67,23.11,3.86,1.11,7.29,2,10.67,3.07,7.84,2.46,16.18,4,23.38,7.74,11.13,5.76,18.49,14.56,18.48,28.47,0,14.16-5.16,25.26-17.44,31.9-6.33,3.43-13.85,5.35-21,6.29-8.1,1-16.44.24-26,.24-.5,15.66,5,29.74,15.4,42,13.52,16,31.62,24.12,51.66,26.92a109.24,109.24,0,0,0,61.69-9.24c17.22-8,28.22-21,32.17-39.53-14.31-20.3-15.53-31-5.19-43.83,7.37-9.13,24-11.93,36.53-6.14,9.69,4.46,18.24,19.46,16.9,29.64C1764.56,1009,1752.14,1019.54,1734.63,1021.86Z"/><path class="cls-1" d="M1762.72,1873.92c-10.27,2.46-19.63,5.29-29.19,6.88a109.08,109.08,0,0,1-44.28-1.64c-24.61-6.1-37.73-23.74-45.67-46.38-1.31-3.74-2.59-7.48-4.62-13.32-2.8,4.56-4.7,7-6,9.83-12.51,27.39-34.46,42.87-63.19,48.82-32.06,6.65-64.1,6.3-95.19-5.18-21.3-7.87-38-21.71-42.2-44.93-8.15-45.22.71-78.3,48.23-99.16,21.07-9.25,43.61-15.15,65.49-22.57,17.6-6,35.35-11.49,52.76-18,28.43-10.57,42.4-31,42.19-61.85-.11-16.89-.25-33.91-2.28-50.64-3.41-28.15-19.4-44.25-45.77-47.51-20.39-2.51-40.35-.85-58.77,9.67-11.57,6.62-17.19,17-16.83,29.72.34,12.3,2.33,24.59,4.15,36.8,2.06,13.85-2.17,25.31-12.72,31a34.29,34.29,0,0,1-10.52,3.27,58.89,58.89,0,0,1-11.12.48c-26-.56-35.88-11.21-33.77-37.29,1.9-23.43,12.09-42.7,31-57,21.09-16,45.15-23.06,71.25-25.5a236.12,236.12,0,0,1,49.37.22c32.82,3.76,61.76,15.12,82.21,42.49,12.5,16.73,18.35,36,18.44,56.82.32,68.25.29,136.51.59,204.76a125.58,125.58,0,0,0,2.21,22.13c2.47,13.43,11.1,20.77,24.86,21.73a54.44,54.44,0,0,0,11.12-.42c16.27-2.21,18.76-5.1,18.77-21.25v-403.2h-29.36l-.52-2.45c1.41-.86,2.83-2.46,4.25-2.46q60.15-.16,120.3,0c1.11,0,2.22.84,4.64,1.81-9.68,6.23-20,.53-30.21,4.68-.21,3.68-.66,8-.67,12.39q-.08,61.44,0,122.86c0,147.69.42,295.37-.32,443.05-.17,33.35-1.12,67-7,100s-19.23,62.14-43.71,85.75c-35.32,34.07-93.55,38-133.87,5.5-13.38-10.77-21.75-24.74-24.33-41.89-2-13.35,1-32.65,17-40.59,9.91-4.91,19.92-5.16,30.1-2.45,7.32,1.95,11.67,7.54,13.87,14.7,2.5,8.12,2,16.16.27,24.46a240.08,240.08,0,0,0-3.44,26.92c-1.9,21.38,21.18,33.13,36.42,31.32,24.18-2.86,38.6-17,43.54-43.4a157.46,157.46,0,0,0,2.87-28.3q.33-135.27.13-270.54C1763.27,1880.91,1762.93,1877.69,1762.72,1873.92ZM1638,1674.36c-10.53,15.55-25.43,19.78-39.4,25.59-19,7.93-38.32,15.38-57.12,23.87-13,5.85-24.25,14.68-31.73,27-18.38,30.16-17.25,61.37-2.07,92.17,5.39,11,15.54,18.08,27.45,21.94a75,75,0,0,0,85.88-30.34c11.76-18.21,16.83-38.69,17.56-59.93,1-29.74.62-59.53.74-89.3C1639.28,1682.65,1638.65,1680,1638,1674.36Z"/><path class="cls-1" d="M1193.65,1457.28v-143.2h458.68v142.69c-7,2.32-8.14-2.73-9.59-6.83-4-11.28-7-23-11.76-33.91-13.09-30-30.55-56.86-58.46-75.35-16.2-10.73-34.38-15.93-53.67-17.06-14.42-.85-28.85-1.39-43.28-1.82-4-.12-8,.66-13.14,1.12-.18,5.79-.47,10.65-.47,15.5,0,67-.11,134,.14,201,0,10.61-1.77,20.22-6.82,29.71-8.12,15.25-12.66,31.62-7.82,48.92a67.74,67.74,0,0,0,9.24,19.83c3.21,4.67,5.39,8.89,5.35,14.61-.18,22.33-.25,44.67,0,67,.09,6.87-2.32,11.67-7.63,15.91-13.14,10.49-24,22.87-28.61,39.53-7,25.2-5.84,49.9,6.41,73.29,6.52,12.45,17.44,20.77,29.76,27.21,3.6,1.88,7.32,3.52,13.12,6.29H1295.45c-1.77-7.1,1.38-8.81,7-8.7q32.82.67,65.66,1.15c4.4.06,8.81-.52,12.79-.77,2.77-9.89,3.49-534.28,1-549.46-1.17-.58-2.62-2-4-1.89-21.42.79-43.1,0-64.21,3.09-33.72,4.93-58.78,24.74-78.05,52.27-15.58,22.26-25.85,47-33.62,72.82C1200.94,1453.66,1200.7,1457.87,1193.65,1457.28Z"/><path class="cls-1" d="M1528.49,1276.93H1269.41a96.31,96.31,0,0,1-12.38-.31,24.25,24.25,0,0,1-21.11-22.49c-.62-10.42,6.92-21.55,17.31-24.42a60.22,60.22,0,0,1,15.88-2q259.08-.15,518.17-.07c9.62,0,18.81,1,26.33,8.35,7.11,7,8.32,15.3,6,24-2.44,9-9.18,14.65-18.41,16.41-4.41.84-9.05.57-13.59.57Q1658,1276.94,1528.49,1276.93Z"/><path d="M1662.79,2007.42c-5,4.45-9,8.54-13.57,12.09-6.31,5-13.41,6.58-20.79,2.51-6.21-3.44-8.2-10-5.42-19.69,2.6-9.1,6.18-17.93,9.3-26.89,1.17-3.34,2.26-6.71,4.19-12.47-24.64,14.73-33.07,36.1-35.87,60.36-12.15-1.21-12.9-1.9-15.51-13.37-23.34,19.27-31.26,19.69-41.8,2.2-23.69,16.52-33,15.49-42.24-4.78-4.83,3.87-9.52,7.9-14.5,11.52a26,26,0,0,1-17.47,5.17c-9.56-.63-15.16-7.64-12.43-17a66.6,66.6,0,0,1,8-16.66c4.86-7.65,10.5-14.81,16.1-22.57-8.55-1.22-13.8,2.13-18.21,9.14a334,334,0,0,1-21.5,30.26,60.07,60.07,0,0,1-15.38,14.09c-11.7,7-20,2.94-23.93-11.43l-6.37,5.16c-1.92,1.57-3.72,3.3-5.77,4.69-14,9.48-24.19,5.12-27.19-12.23-4.11,3.84-7.75,7.7-11.86,11-12.36,9.92-23.65,7.55-31.31-6.73-7.57,4.63-13.58,12.6-23.67,12-9.89-.64-15.32-6.76-19.4-19.69-2.65,4.54-3.75,7.36-5.64,9.45a38.55,38.55,0,0,1-8.46,7.21c-6.27,3.79-13.38,5.78-19.85,1.37-6.27-4.27-6.64-11.62-4.57-18.06,4.41-13.72,9.59-27.21,14.81-40.65,2-5.28,5-10.18,7.67-15.34-5.71-2.93-9.58,6.09-15.67,1,2.68-5.19,7.83-7.3,12.47-9.06,8.15-3.09,12.46-8.79,15-16.72,2-6.19,4.66-12.16,6.95-18,16,3,17.65,5.62,13.36,21.58h26.23c-.1,7.11-4,7.93-8.91,8.13-7.77.3-15.53,1.07-22.42,1.58-19.28,30.06-33.07,64.32-31,77.14,6.89-2.88,11.71-7.87,15.7-13.64,5.39-7.82,10.38-15.93,15.65-23.83,6.77-10.15,15.22-18.46,26.36-23.81a31.72,31.72,0,0,1,20.51-2.89c11,2.26,15.07,13.85,8,24.19,7.35,5.16,7.13,11.63,3.28,19.31-3,6.07-6,12.62-3.68,21.91,22.39-17.28,32.68-40.21,39.67-64.7,15.67.87,19.3,6.52,13.71,19.58-4.23,9.87-8.48,19.74-12.24,29.79-1.52,4-1.77,8.54-1.38,13.35,24.63-14.1,31.12-39.66,40-64.85,4.56,2,8.07,3.11,11,5,4.65,3.09,6.08,7.17,3.49,12.82-4.8,10.5-9.25,21.19-13.36,32-1.68,4.42-2.1,9.32-3.31,15,6.15,0,9.19-2.89,11.48-5.93,9.19-12.15,18.06-24.54,27-36.91a10.42,10.42,0,0,0,1.79-4.52c1.86-14.15,1.82-14.16,11.86-29.07l11.43,8.67-5.43,12.82c8.92.34,15.14-5.43,23.4-8.65l8.12,5.12c-.28,2.18-.06,3.62-.65,4.53-4.69,7.25-9.42,14.49-14.37,21.57-4,5.76-8.68,11.08-12.42,17-2.24,3.55-3.24,7.89-5.78,14.38,5.24-1.55,8.43-1.55,10-3.14a186,186,0,0,0,16.5-18.23c5.29-6.85,8.88-15.16,14.78-21.35a87.35,87.35,0,0,1,22.29-17.16c5.39-2.81,12.8-2.78,19.2-2.36s10,5.26,11.27,11.57c.88,4.4,3,9.12-4.33,11.76,8.09,5.75,7.67,12.61,3.88,20.47-2.81,5.81-5.33,12-4.88,19,10.76-3,14.08-5.68,26.65-27.33,6.34-10.91,10.53-23.06,15.89-35.09,7.33-.34,12,4.16,16.58,9.6,4.21-2.45,8-4.92,12-6.89,11-5.46,15-4.12,22.73,8.15-3.35,8-7.12,16.64-10.59,25.41-3.27,8.3-8.48,16.2-6,27.38,24.7-16,32.18-42.56,46.06-67.14l-17.27,5.05c2.33-7.62,7.38-9.33,11.48-10.88,9.39-3.55,14.47-10.23,17.32-19.4,1.69-5.45,4-10.73,5.88-15.9,15.92,2,18.25,5.54,13.28,21.27h26.6c-.31,7.9-4.86,7.92-9.63,8.14-7.36.34-14.71,1.06-21.2,1.56-17.22,24.92-33.1,63.17-32,76.84,6.17-1.26,10.12-5.48,13.54-10.06,4.93-6.61,9.41-13.57,14.15-20.34,2.26-3.24,4.79-4.45,8.17-.05-6.51,12.74-14.17,24.76-25,34.54-.62.55-1.24,1.1-1.9,1.59C1677.63,2029.3,1666.59,2025.2,1662.79,2007.42ZM1334.35,1958c-7-2.56-11.61.5-15.67,4-12,10.44-18.65,24-21.18,39.47-.48,3,1.41,8.2,3.64,9.22,2.4,1.1,7.37-.59,9.71-2.72,8.88-8.07,16.52-17.12,20-29.18,1.08-3.78,4.36-6.93,7.11-11.09a49.26,49.26,0,0,0-1.31-5A42.07,42.07,0,0,0,1334.35,1958Zm227,9.23c-1.46-11.19-6.74-13.74-17-6.4a27.66,27.66,0,0,0-2.84,2.35c-9.56,9-15.48,20.13-18.74,32.61-1.29,4.93-2.4,10.49,2.64,16.31,2.91-1,6.92-1.36,9.23-3.5,8.41-7.83,16-16.34,19.67-27.75C1555.65,1976.52,1558.45,1972.69,1561.37,1967.19Z"/><path d="M1952.79,1286.55c6.54-12.26,12.8-23.37,18.38-34.81,2.08-4.26,4.39-9.68-.32-13.78s-10.52-2.28-15.08.41c-6.35,3.73-12.79,7.86-17.88,13.09-30.27,31.14-51.75,67.48-61.83,109.92-2.15,9-2,18.93-1.34,28.31.92,12.62,7.66,17.4,20.15,15.67,10.64-1.48,19.21-7.27,27-14.24,13.11-11.68,22.91-26,32.23-40.69a259.19,259.19,0,0,1,17.9-25.2c8.49-10.4,18.92-18.74,32.16-22.15a52.33,52.33,0,0,1,18.29-1.15c7.15.77,11.53,5.85,13.75,12.72,2.64,8.2,2.16,10.93-3.56,17.65,9.19,9.47,9.1,9.43,4.23,21.33-3.4,8.3-7.21,16.55-7,27.34,3.28-1.16,6.4-1.34,8-3a236.91,236.91,0,0,0,18-20.32c15.65-20.51,25.89-44.08,36.7-67.27,6.59-14.16,12.49-28.64,18.93-43.5,2.55.43,5.06.39,7.18,1.28,12.29,5.14,14.48,10.08,8.54,22-12.88,25.9-26.18,51.59-39.42,77.31-5.08,9.85-10.47,19.53-16.41,30.58,8.41-.41,13.58-4.69,17.56-9.58,8.86-10.87,17.37-22.07,25.26-33.66,10.9-16,24.72-27.69,43.85-32.19a30.06,30.06,0,0,1,11-.8c11.49,1.67,16.23,10.24,11.41,20.76-5.44,11.86-13.3,22.05-24.45,29-8.69,5.41-18,9.84-28.19,15.35.88,3.28,1.42,7.36,3,10.93,2.71,5.94,6.69,7.54,13.16,5.87,11.32-2.94,19.81-10.23,26.88-19,5.42-6.74,9.93-14.21,14.66-21.47,2.83-4.34,5.81-6.84,11.66-2-9.48,16.68-19.27,32.84-34.79,44.4-12.4,9.24-26.94,10.23-41.52,7.31-10.9-2.18-16.26-10.6-18.51-20.53l-30.11,16.92c5.46,16.78,1.13,33.59-8.26,49.42a49.55,49.55,0,0,1-9.67,11.15,13.92,13.92,0,0,1-16.2,2.21c-5.37-2.64-7.63-7.93-7.14-13.48a117.56,117.56,0,0,1,4-21.85c2.83-9.86,6.58-19.45,10.67-31.27-10.56,7.22-20.9,11.81-31.53,6.2-4.46-2.35-7-8.38-10.84-13.33-1.83,1.51-4.82,4.07-7.92,6.48-18.14,14.09-33.54,10.54-43.89-10.71-3.36,3.91-6.55,7.61-9.72,11.32-9.53,11.13-20.48,20.71-33.83,26.67a79.74,79.74,0,0,1-23.71,6c-22.08,2.35-41.88-15.79-38.7-43.09a166,166,0,0,1,12.85-46.43c12.2-28.4,28.24-54.26,50.94-75.55,13.49-12.65,28.68-22.62,47.46-25a57.23,57.23,0,0,1,19.55,1.17c9.23,2.09,13.73,9.51,11.74,18.81-2.93,13.61-9.83,25.48-18.95,35.78C1964.86,1288.68,1958.75,1290.4,1952.79,1286.55Zm74.53,42c-.47-2.79-.81-5.64-1.44-8.41-1.81-8-5.53-10.43-13.25-8.41a18.63,18.63,0,0,0-6.66,3.17c-17.07,13.46-26.32,31.41-29.4,52.68-.6,4.11-.14,8.46,4.15,10.89s8.24.18,11.21-2.62c11.5-10.81,22.32-22.14,26.14-38.3C2019.68,1330.66,2020,1330.73,2027.32,1328.52Zm102.26,27.26c13.07-2.19,26.34-11.81,35-25.18,3.52-5.45,7.83-10.95,3.32-19.16C2146.38,1318.72,2137.77,1336.56,2129.58,1355.78Zm-80.29,87.9c11.54-12.43,14.42-27.27,11.92-43.61C2053.71,1413.62,2048.43,1427.8,2049.29,1443.68Z"/><path d="M1077.42,1899l15.3,12.85c-18.56,25.51-34.37,51-46.54,79.59,5.17,1.53,10,.45,14.33-.91,21.65-6.71,39.33-19.06,51.61-38.37,5.39-8.47,8.75-17.69,8.49-28.06-.27-10.71-5.27-18.13-14.79-22.39-10.52-4.72-21.56-6.47-32.46-1.75-7.14,3.09-14.43,6.58-20.41,11.44-25.27,20.5-44.82,45.05-51.59,77.94-.15.73-.86,1.34-1.31,2-11.58-3.33-16.77-10.22-13.09-20.51,3.85-10.79,8.58-21.65,15-31.07,22-32.2,52.84-49.09,92-49.86a71,71,0,0,1,18.35,2.15c22,5.46,32.39,23.36,26.92,45.39-2.65,10.7-8.15,19.83-15.61,27.81-14.85,15.87-33.36,25.45-54.07,31.17-2.78.77-5.61,1.39-8.38,2.2-.74.21-1.34.89-3,2.08,15.52,21.88,31.11,42.9,62.24,41-2.72,13.43-6.34,16-17.44,13.41-15.68-3.73-27.45-13.18-36.68-25.91-5.08-7-9.29-14.64-14-22-1.89-3-4-5.76-6.48-9.35-7.44,6.93-8.46,15.38-11.27,22.77s-4.33,15-6.43,22.55c-10.9-4.46-13.37-8.23-11-18.35,2.23-9.63,5.2-19.1,7.92-28.91-3.76-4.76-8.29-9.52-11.61-15-2.94-4.85-2.28-5.34,5.2-9.78,2.71,4.92,5.44,9.86,8.94,16.19,2.13-3.5,3.62-5.67,4.84-8,11.74-22.28,23.35-44.64,35.24-66.85C1069.86,1908.31,1073.21,1904.71,1077.42,1899Z"/><path d="M1180.17,2012.13c-10.41,10-21.87,13.47-34.91,12.23s-20.21-9-20.14-21.94c.13-23.36,26.34-51.64,49.3-53.12,5.62-.36,10.83.85,14.08,5.94,3.12,4.9.93,9.56-1.49,14-6.78,12.38-16.83,21.25-29.55,27.18-3.68,1.71-7.41,3.31-11.75,5.24.59,2.73.77,5.18,1.65,7.34,2.85,7,6.46,8.84,13.54,6.17,8.72-3.29,15.57-9.27,20.94-16.81,10.52-14.79,20.76-29.79,31.39-44.5,3.81-5.28,8.42-10,13.51-15.95l12.78,8.76c-.19,2,0,3.13-.38,3.59-10.94,11.81-13.6,26-12,41.42.29,2.87.17,5.78.35,8.67.66,10.57-3.27,18.61-13.14,23-9.7,4.34-22.44,1.83-29.8-5.59A64.57,64.57,0,0,1,1180.17,2012.13Zm-1.85-53.53c-14.57,3.21-27.39,18.46-29,34.52C1168.53,1985.44,1179.88,1971.94,1178.32,1958.6Zm23.79,26.47c2,4.87,8,8.28,4.39,14.5-2.5-.13-5-.74-7.26-.27-5.15,1.06-8.52,5.3-8.1,9.44.48,4.62,5.62,9.69,10,9.43,5.6-.33,7.56-4.41,8.24-9.22a44.66,44.66,0,0,0,.14-7.41q-.29-11.77-.72-23.53c0-.38-.8-.73-1.53-1.36Z"/></svg>